<svg version="1.1" id="Layer_1" xmlns="http://www.w3.org/2000/svg" xmlns:xlink="http://www.w3.org/1999/xlink" x="0px" y="0px"
	 width="100%" viewBox="0 0 1092 1096" enable-background="new 0 0 1092 1096" xml:space="preserve">
<path fill="#E4F2F0" opacity="1.000000" stroke="none" 
	d="
M1.000000,1096.000000 
	C1.000000,731.045166 1.000000,366.090363 1.000000,1.067780 
	C364.909729,1.067780 728.819519,1.067780 1093.000000,1.067780 
	C1093.000000,365.697540 1093.000000,730.395142 1092.788452,1095.664673 
	C1092.304077,1096.430176 1092.111694,1096.684692 1092.000000,1097.000000 
	C728.969116,1097.000000 365.938171,1097.000000 2.339739,1096.786133 
	C1.563927,1096.315063 1.306522,1096.124390 1.000000,1096.000000 
M459.064972,559.633118 
	C474.554932,559.479919 490.046722,559.428467 505.534454,559.151001 
	C533.016418,558.658691 559.910095,554.540161 585.800293,545.073669 
	C614.690491,534.510376 639.664185,518.281799 658.705444,493.669983 
	C683.288269,461.895447 692.528198,425.063324 693.550049,385.799194 
	C694.096313,364.811188 691.997498,343.896332 687.749268,323.280212 
	C686.084839,315.202881 684.023010,307.207428 681.365112,299.025574 
	C671.240051,302.714722 661.190491,306.630219 650.972290,310.040314 
	C635.406311,315.235138 619.723633,320.080139 603.866028,324.338318 
	C591.951233,287.411652 570.548401,256.068481 545.825806,225.676239 
	C544.780823,227.032440 544.003601,228.331970 542.957214,229.356598 
	C519.992432,251.842712 497.116516,274.421600 473.958038,296.706818 
	C462.692413,307.547577 449.694611,316.798065 439.546143,328.551575 
	C405.876373,367.546478 396.079071,412.512634 411.137848,461.850769 
	C416.007660,477.806213 424.105621,492.824677 431.255981,508.022858 
	C439.182648,524.870972 447.714783,541.434265 456.050659,558.777344 
	C456.752167,559.023438 457.453644,559.269470 459.064972,559.633118 
M477.739777,644.148376 
	C464.276123,650.407288 456.744415,660.603027 456.620453,675.788879 
	C456.497620,690.833130 464.417114,700.546753 477.498260,706.336609 
	C485.843506,710.030273 494.675018,712.610352 503.138885,716.057190 
	C507.401886,717.793213 511.820343,719.756042 515.318115,722.645691 
	C524.882751,730.547424 521.999634,745.509155 510.411957,749.794189 
	C495.008636,755.490234 481.990417,747.999207 477.483459,730.764893 
	C469.635437,730.764893 461.769257,730.764893 453.661652,730.764893 
	C454.023987,746.155396 460.402863,757.445068 473.813232,764.283264 
	C488.478271,771.761353 503.935699,772.483215 519.488098,767.891174 
	C534.823608,763.363159 544.347107,750.719116 545.485840,734.712341 
	C546.506958,720.358765 539.593933,709.080383 524.681274,702.037903 
	C517.181580,698.496094 509.192261,696.005493 501.519531,692.810913 
	C496.477356,690.711609 491.239166,688.754944 486.734406,685.762451 
	C477.815643,679.838074 479.068451,665.765564 488.838776,661.553589 
	C498.864166,657.231628 513.761719,659.150208 517.157959,673.797180 
	C517.412109,674.893250 518.894714,676.484558 519.847961,676.514404 
	C527.117188,676.742432 534.396851,676.639404 542.095825,676.639404 
	C541.524414,663.176086 536.228821,653.033997 525.119873,646.722351 
	C510.178833,638.233521 494.443420,637.745789 477.739777,644.148376 
M174.160675,711.227234 
	C166.653275,689.539185 159.177399,667.840027 151.570450,646.186951 
	C151.039276,644.674988 149.587204,642.404663 148.476700,642.353088 
	C141.085846,642.009949 133.671387,642.175232 125.784599,642.175232 
	C126.231148,643.889648 126.397964,644.843811 126.724808,645.739685 
	C141.203857,685.425598 155.726562,725.095581 170.130096,764.808899 
	C171.233734,767.851868 172.871933,768.846436 176.000275,768.738220 
	C182.155548,768.525330 188.345993,768.353943 194.478378,768.784790 
	C198.823318,769.090027 200.536575,767.297119 201.914429,763.477966 
	C213.089203,732.503479 224.460953,701.600098 235.754181,670.668274 
	C239.158844,661.342957 242.505295,651.996399 246.070312,642.128357 
	C239.027802,642.128357 232.701172,642.362976 226.403214,642.039368 
	C222.700653,641.848999 221.187271,643.294983 220.031723,646.641724 
	C209.827789,676.194885 199.459976,705.691528 189.132294,735.201904 
	C188.225021,737.794373 187.258789,740.366211 185.816284,744.332336 
	C181.672577,732.539856 178.056595,722.249268 174.160675,711.227234 
M878.224854,766.864136 
	C882.432068,763.225830 886.639221,759.587585 890.955872,755.854614 
	C891.430054,758.810486 891.794495,762.074280 892.542969,765.247437 
	C892.832214,766.473877 893.948730,768.422913 894.762390,768.460999 
	C900.673706,768.737244 906.603882,768.609497 912.633911,768.609497 
	C912.633911,749.011475 912.931580,730.196838 912.518311,711.397827 
	C912.283203,700.700256 908.759033,691.024719 899.145142,684.878174 
	C882.687561,674.355957 865.336487,674.299927 848.227783,682.437256 
	C837.856506,687.370117 831.270020,696.096985 830.210632,708.873108 
	C836.129089,708.873108 841.745544,708.784729 847.357300,708.907532 
	C850.518005,708.976746 852.601562,708.693176 854.167175,704.982849 
	C857.496033,697.093628 868.673096,693.463806 877.974487,696.436523 
	C886.140747,699.046448 890.222046,706.067810 888.778748,715.858704 
	C882.274963,715.858704 875.617737,715.412598 869.046265,715.972595 
	C860.989502,716.659180 852.750427,717.318970 845.052551,719.570923 
	C835.370728,722.403259 829.474731,729.791809 828.211426,739.924133 
	C826.862976,750.739441 830.541809,759.853149 840.197632,765.455200 
	C852.202637,772.419983 864.819214,772.620361 878.224854,766.864136 
M640.408997,757.911133 
	C656.937988,741.405945 656.722168,715.240906 648.144714,699.961853 
	C638.137634,682.136475 618.939453,673.616394 597.825256,678.102112 
	C579.372437,682.022400 567.681946,693.725586 563.615356,711.839233 
	C559.347168,730.850891 563.370911,748.277344 579.302673,760.877563 
	C597.518433,775.284119 621.456238,773.938904 640.408997,757.911133 
M719.308044,750.946228 
	C711.033081,751.042114 704.443481,747.731018 699.708801,740.969055 
	C693.486938,732.083252 694.037720,715.536621 699.862488,706.263367 
	C708.230225,692.941650 730.952209,693.692200 736.700928,707.771790 
	C737.130188,708.823120 738.805542,709.996765 739.932800,710.029175 
	C747.060181,710.234131 754.196411,710.133179 761.379089,710.133179 
	C758.667664,688.879333 738.271973,675.243835 712.609924,677.107971 
	C688.742432,678.841614 670.680298,699.591125 671.354553,724.501587 
	C672.078674,751.250488 691.104797,770.316772 717.142395,770.653687 
	C744.943176,771.013367 759.848206,751.992126 761.196716,736.998962 
	C754.193054,736.998962 747.210327,736.903198 740.235474,737.094910 
	C739.096191,737.126343 737.424683,738.168396 736.962097,739.182617 
	C733.639038,746.468506 727.636169,749.703308 719.308044,750.946228 
M337.500000,642.128723 
	C325.564270,642.128723 313.628540,642.128723 301.471985,642.128723 
	C301.471985,648.624207 301.471985,654.500916 301.471985,660.931396 
	C313.706970,660.931396 325.606293,660.931396 338.025574,660.931396 
	C338.025574,697.022705 338.025574,732.562012 338.025574,768.281128 
	C345.943909,768.281128 353.319550,768.281128 361.230347,768.281128 
	C361.230347,732.342041 361.230347,696.793579 361.230347,660.750610 
	C373.678650,660.750610 385.595093,660.750610 397.668579,660.750610 
	C397.668579,654.362366 397.668579,648.480469 397.668579,642.128845 
	C377.722382,642.128845 358.111176,642.128845 337.500000,642.128723 
M934.507019,650.527283 
	C934.507019,689.752136 934.507019,728.977051 934.507019,768.275146 
	C942.717590,768.275146 950.107361,768.275146 957.476685,768.275146 
	C957.476685,725.004395 957.476685,682.135437 957.476685,639.242920 
	C949.710327,639.242920 942.326660,639.242920 934.507996,639.242920 
	C934.507996,642.928101 934.507996,646.233521 934.507019,650.527283 
M260.999634,697.500000 
	C260.999634,721.070679 260.999634,744.641357 260.999634,768.372681 
	C268.978882,768.372681 276.230225,768.372681 283.681396,768.372681 
	C283.681396,726.239502 283.681396,684.401733 283.681396,642.416809 
	C276.060272,642.416809 268.814575,642.416809 260.999756,642.416809 
	C260.999756,660.629150 260.999756,678.564575 260.999634,697.500000 
M806.659180,719.500000 
	C806.659180,706.098389 806.659180,692.696838 806.659180,679.388245 
	C798.431274,679.388245 791.041870,679.388245 783.682983,679.388245 
	C783.682983,709.292236 783.682983,738.797974 783.682983,768.268921 
	C791.506775,768.268921 798.893250,768.268921 806.659058,768.268921 
	C806.659058,752.073181 806.659058,736.286560 806.659180,719.500000 
M782.534729,658.762207 
	C783.545471,659.857361 784.443787,661.089478 785.584839,662.025696 
	C793.668945,668.658264 807.442505,664.123352 809.075378,654.331665 
	C810.045837,648.512390 807.718689,643.275208 803.034729,640.736877 
	C797.530334,637.753967 789.053772,638.417175 784.673462,642.173523 
	C780.432068,645.810791 779.503540,651.645874 782.534729,658.762207 
z"/>
<path fill="#F4F6FA" opacity="1.000000" stroke="none" 
	d="
M1.000000,1096.500000 
	C1.306522,1096.124390 1.563927,1096.315063 1.886106,1096.786133 
	C1.666667,1097.000000 1.333333,1097.000000 1.000000,1096.500000 
z"/>
<path fill="#F4F6FA" opacity="1.000000" stroke="none" 
	d="
M1092.500000,1097.000000 
	C1092.111694,1096.684692 1092.304077,1096.430176 1092.788452,1096.118286 
	C1093.000000,1096.333374 1093.000000,1096.666626 1092.500000,1097.000000 
z"/>
<path fill="#B2E692" opacity="1.000000" stroke="none" 
	d="
M604.090515,325.073700 
	C619.723633,320.080139 635.406311,315.235138 650.972290,310.040314 
	C661.190491,306.630219 671.240051,302.714722 681.681763,299.452881 
	C677.645752,309.231781 674.001404,318.999512 668.800049,327.852417 
	C656.086243,349.491699 643.191162,371.063721 629.365051,391.999786 
	C613.947021,415.346405 595.825684,436.716217 576.350830,456.761749 
	C559.425598,474.183014 541.923401,491.110565 523.823120,507.302765 
	C508.874390,520.675598 492.720276,532.706726 477.014374,545.224548 
	C470.848206,550.139099 464.448486,554.760559 458.155151,559.515564 
	C457.453644,559.269470 456.752167,559.023438 456.031921,557.970093 
	C456.035553,530.181213 456.112000,503.199493 456.061829,476.217987 
	C456.026550,457.248657 459.012299,438.858765 466.079285,421.199005 
	C477.500153,392.659271 496.233063,370.334686 522.265259,353.870483 
	C537.998108,343.920227 555.400146,338.778839 573.090759,334.063568 
	C583.484314,331.293335 593.761169,328.084991 604.090515,325.073700 
z"/>
<path fill="#4CA795" opacity="1.000000" stroke="none" 
	d="
M603.978271,324.705994 
	C593.761169,328.084991 583.484314,331.293335 573.090759,334.063568 
	C555.400146,338.778839 537.998108,343.920227 522.265259,353.870483 
	C496.233063,370.334686 477.500153,392.659271 466.079285,421.199005 
	C459.012299,438.858765 456.026550,457.248657 456.061829,476.217987 
	C456.112000,503.199493 456.035553,530.181213 455.998230,557.642212 
	C447.714783,541.434265 439.182648,524.870972 431.255981,508.022858 
	C424.105621,492.824677 416.007660,477.806213 411.137848,461.850769 
	C396.079071,412.512634 405.876373,367.546478 439.546143,328.551575 
	C449.694611,316.798065 462.692413,307.547577 473.958038,296.706818 
	C497.116516,274.421600 519.992432,251.842712 542.957214,229.356598 
	C544.003601,228.331970 544.780823,227.032440 545.825806,225.676239 
	C570.548401,256.068481 591.951233,287.411652 603.978271,324.705994 
z"/>
<path fill="#5CC97E" opacity="1.000000" stroke="none" 
	d="
M458.610046,559.574341 
	C464.448486,554.760559 470.848206,550.139099 477.014374,545.224548 
	C492.720276,532.706726 508.874390,520.675598 523.823120,507.302765 
	C541.923401,491.110565 559.425598,474.183014 576.350830,456.761749 
	C595.825684,436.716217 613.947021,415.346405 629.365051,391.999786 
	C643.191162,371.063721 656.086243,349.491699 668.800049,327.852417 
	C674.001404,318.999512 677.645752,309.231781 682.070312,299.527466 
	C684.023010,307.207428 686.084839,315.202881 687.749268,323.280212 
	C691.997498,343.896332 694.096313,364.811188 693.550049,385.799194 
	C692.528198,425.063324 683.288269,461.895447 658.705444,493.669983 
	C639.664185,518.281799 614.690491,534.510376 585.800293,545.073669 
	C559.910095,554.540161 533.016418,558.658691 505.534454,559.151001 
	C490.046722,559.428467 474.554932,559.479919 458.610046,559.574341 
z"/>
<path fill="#4EA896" opacity="1.000000" stroke="none" 
	d="
M478.099487,644.022522 
	C494.443420,637.745789 510.178833,638.233521 525.119873,646.722351 
	C536.228821,653.033997 541.524414,663.176086 542.095825,676.639404 
	C534.396851,676.639404 527.117188,676.742432 519.847961,676.514404 
	C518.894714,676.484558 517.412109,674.893250 517.157959,673.797180 
	C513.761719,659.150208 498.864166,657.231628 488.838776,661.553589 
	C479.068451,665.765564 477.815643,679.838074 486.734406,685.762451 
	C491.239166,688.754944 496.477356,690.711609 501.519531,692.810913 
	C509.192261,696.005493 517.181580,698.496094 524.681274,702.037903 
	C539.593933,709.080383 546.506958,720.358765 545.485840,734.712341 
	C544.347107,750.719116 534.823608,763.363159 519.488098,767.891174 
	C503.935699,772.483215 488.478271,771.761353 473.813232,764.283264 
	C460.402863,757.445068 454.023987,746.155396 453.661652,730.764893 
	C461.769257,730.764893 469.635437,730.764893 477.483459,730.764893 
	C481.990417,747.999207 495.008636,755.490234 510.411957,749.794189 
	C521.999634,745.509155 524.882751,730.547424 515.318115,722.645691 
	C511.820343,719.756042 507.401886,717.793213 503.138885,716.057190 
	C494.675018,712.610352 485.843506,710.030273 477.498260,706.336609 
	C464.417114,700.546753 456.497620,690.833130 456.620453,675.788879 
	C456.744415,660.603027 464.276123,650.407288 478.099487,644.022522 
z"/>
<path fill="#4EA896" opacity="1.000000" stroke="none" 
	d="
M174.300659,711.592957 
	C178.056595,722.249268 181.672577,732.539856 185.816284,744.332336 
	C187.258789,740.366211 188.225021,737.794373 189.132294,735.201904 
	C199.459976,705.691528 209.827789,676.194885 220.031723,646.641724 
	C221.187271,643.294983 222.700653,641.848999 226.403214,642.039368 
	C232.701172,642.362976 239.027802,642.128357 246.070312,642.128357 
	C242.505295,651.996399 239.158844,661.342957 235.754181,670.668274 
	C224.460953,701.600098 213.089203,732.503479 201.914429,763.477966 
	C200.536575,767.297119 198.823318,769.090027 194.478378,768.784790 
	C188.345993,768.353943 182.155548,768.525330 176.000275,768.738220 
	C172.871933,768.846436 171.233734,767.851868 170.130096,764.808899 
	C155.726562,725.095581 141.203857,685.425598 126.724808,645.739685 
	C126.397964,644.843811 126.231148,643.889648 125.784599,642.175232 
	C133.671387,642.175232 141.085846,642.009949 148.476700,642.353088 
	C149.587204,642.404663 151.039276,644.674988 151.570450,646.186951 
	C159.177399,667.840027 166.653275,689.539185 174.300659,711.592957 
z"/>
<path fill="#4EA896" opacity="1.000000" stroke="none" 
	d="
M877.885864,767.018555 
	C864.819214,772.620361 852.202637,772.419983 840.197632,765.455200 
	C830.541809,759.853149 826.862976,750.739441 828.211426,739.924133 
	C829.474731,729.791809 835.370728,722.403259 845.052551,719.570923 
	C852.750427,717.318970 860.989502,716.659180 869.046265,715.972595 
	C875.617737,715.412598 882.274963,715.858704 888.778748,715.858704 
	C890.222046,706.067810 886.140747,699.046448 877.974487,696.436523 
	C868.673096,693.463806 857.496033,697.093628 854.167175,704.982849 
	C852.601562,708.693176 850.518005,708.976746 847.357300,708.907532 
	C841.745544,708.784729 836.129089,708.873108 830.210632,708.873108 
	C831.270020,696.096985 837.856506,687.370117 848.227783,682.437256 
	C865.336487,674.299927 882.687561,674.355957 899.145142,684.878174 
	C908.759033,691.024719 912.283203,700.700256 912.518311,711.397827 
	C912.931580,730.196838 912.633911,749.011475 912.633911,768.609497 
	C906.603882,768.609497 900.673706,768.737244 894.762390,768.460999 
	C893.948730,768.422913 892.832214,766.473877 892.542969,765.247437 
	C891.794495,762.074280 891.430054,758.810486 890.955872,755.854614 
	C886.639221,759.587585 882.432068,763.225830 877.885864,767.018555 
M883.585632,744.006836 
	C885.554199,739.609436 887.522766,735.212036 890.073364,729.514343 
	C879.319275,730.046204 870.205017,730.080139 861.201172,731.094238 
	C855.562439,731.729370 852.044922,736.842163 852.242371,742.023071 
	C852.425354,746.821350 856.411499,751.307617 861.778503,752.000000 
	C870.039307,753.065796 877.726990,751.966797 883.585632,744.006836 
z"/>
<path fill="#4EA896" opacity="1.000000" stroke="none" 
	d="
M640.153564,758.160522 
	C621.456238,773.938904 597.518433,775.284119 579.302673,760.877563 
	C563.370911,748.277344 559.347168,730.850891 563.615356,711.839233 
	C567.681946,693.725586 579.372437,682.022400 597.825256,678.102112 
	C618.939453,673.616394 638.137634,682.136475 648.144714,699.961853 
	C656.722168,715.240906 656.937988,741.405945 640.153564,758.160522 
M605.834534,697.005249 
	C594.847229,699.000549 588.931519,704.431885 586.867554,715.280884 
	C586.040100,719.630432 585.849182,724.228882 586.194580,728.649475 
	C587.177063,741.223999 595.591980,749.760376 606.898010,750.211426 
	C618.654846,750.680542 627.655518,743.278198 629.704712,730.975098 
	C630.352600,727.085449 630.172852,723.008484 629.977112,719.036743 
	C629.311279,705.531982 620.206360,696.982971 605.834534,697.005249 
z"/>
<path fill="#4EA896" opacity="1.000000" stroke="none" 
	d="
M719.727783,750.923828 
	C727.636169,749.703308 733.639038,746.468506 736.962097,739.182617 
	C737.424683,738.168396 739.096191,737.126343 740.235474,737.094910 
	C747.210327,736.903198 754.193054,736.998962 761.196716,736.998962 
	C759.848206,751.992126 744.943176,771.013367 717.142395,770.653687 
	C691.104797,770.316772 672.078674,751.250488 671.354553,724.501587 
	C670.680298,699.591125 688.742432,678.841614 712.609924,677.107971 
	C738.271973,675.243835 758.667664,688.879333 761.379089,710.133179 
	C754.196411,710.133179 747.060181,710.234131 739.932800,710.029175 
	C738.805542,709.996765 737.130188,708.823120 736.700928,707.771790 
	C730.952209,693.692200 708.230225,692.941650 699.862488,706.263367 
	C694.037720,715.536621 693.486938,732.083252 699.708801,740.969055 
	C704.443481,747.731018 711.033081,751.042114 719.727783,750.923828 
z"/>
<path fill="#4EA896" opacity="1.000000" stroke="none" 
	d="
M338.000000,642.128784 
	C358.111176,642.128845 377.722382,642.128845 397.668579,642.128845 
	C397.668579,648.480469 397.668579,654.362366 397.668579,660.750610 
	C385.595093,660.750610 373.678650,660.750610 361.230347,660.750610 
	C361.230347,696.793579 361.230347,732.342041 361.230347,768.281128 
	C353.319550,768.281128 345.943909,768.281128 338.025574,768.281128 
	C338.025574,732.562012 338.025574,697.022705 338.025574,660.931396 
	C325.606293,660.931396 313.706970,660.931396 301.471985,660.931396 
	C301.471985,654.500916 301.471985,648.624207 301.471985,642.128723 
	C313.628540,642.128723 325.564270,642.128723 338.000000,642.128784 
z"/>
<path fill="#4EA896" opacity="1.000000" stroke="none" 
	d="
M934.507507,650.033081 
	C934.507996,646.233521 934.507996,642.928101 934.507996,639.242920 
	C942.326660,639.242920 949.710327,639.242920 957.476685,639.242920 
	C957.476685,682.135437 957.476685,725.004395 957.476685,768.275146 
	C950.107361,768.275146 942.717590,768.275146 934.507019,768.275146 
	C934.507019,728.977051 934.507019,689.752136 934.507507,650.033081 
z"/>
<path fill="#4CA795" opacity="1.000000" stroke="none" 
	d="
M260.999695,697.000000 
	C260.999756,678.564575 260.999756,660.629150 260.999756,642.416809 
	C268.814575,642.416809 276.060272,642.416809 283.681396,642.416809 
	C283.681396,684.401733 283.681396,726.239502 283.681396,768.372681 
	C276.230225,768.372681 268.978882,768.372681 260.999634,768.372681 
	C260.999634,744.641357 260.999634,721.070679 260.999695,697.000000 
z"/>
<path fill="#4FA897" opacity="1.000000" stroke="none" 
	d="
M806.659119,720.000000 
	C806.659058,736.286560 806.659058,752.073181 806.659058,768.268921 
	C798.893250,768.268921 791.506775,768.268921 783.682983,768.268921 
	C783.682983,738.797974 783.682983,709.292236 783.682983,679.388245 
	C791.041870,679.388245 798.431274,679.388245 806.659180,679.388245 
	C806.659180,692.696838 806.659180,706.098389 806.659119,720.000000 
z"/>
<path fill="#4EA896" opacity="1.000000" stroke="none" 
	d="
M782.334839,658.444153 
	C779.503540,651.645874 780.432068,645.810791 784.673462,642.173523 
	C789.053772,638.417175 797.530334,637.753967 803.034729,640.736877 
	C807.718689,643.275208 810.045837,648.512390 809.075378,654.331665 
	C807.442505,664.123352 793.668945,668.658264 785.584839,662.025696 
	C784.443787,661.089478 783.545471,659.857361 782.334839,658.444153 
z"/>
<path fill="#E3F1EF" opacity="1.000000" stroke="none" 
	d="
M883.355835,744.287537 
	C877.726990,751.966797 870.039307,753.065796 861.778503,752.000000 
	C856.411499,751.307617 852.425354,746.821350 852.242371,742.023071 
	C852.044922,736.842163 855.562439,731.729370 861.201172,731.094238 
	C870.205017,730.080139 879.319275,730.046204 890.073364,729.514343 
	C887.522766,735.212036 885.554199,739.609436 883.355835,744.287537 
z"/>
<path fill="#E3F1EF" opacity="1.000000" stroke="none" 
	d="
M606.268921,696.988159 
	C620.206360,696.982971 629.311279,705.531982 629.977112,719.036743 
	C630.172852,723.008484 630.352600,727.085449 629.704712,730.975098 
	C627.655518,743.278198 618.654846,750.680542 606.898010,750.211426 
	C595.591980,749.760376 587.177063,741.223999 586.194580,728.649475 
	C585.849182,724.228882 586.040100,719.630432 586.867554,715.280884 
	C588.931519,704.431885 594.847229,699.000549 606.268921,696.988159 
z"/>
</svg>